<svg xmlns="http://www.w3.org/2000/svg" viewBox="0 0 64 64" role="img" aria-label="Brain OS favicon">
  <defs>
    <linearGradient id="bg" x1="8" y1="6" x2="56" y2="58" gradientUnits="userSpaceOnUse">
      <stop stop-color="#111827"/>
      <stop offset="1" stop-color="#020617"/>
    </linearGradient>
    <linearGradient id="pulse" x1="14" y1="13" x2="50" y2="51" gradientUnits="userSpaceOnUse">
      <stop stop-color="#A78BFA"/>
      <stop offset="0.5" stop-color="#22D3EE"/>
      <stop offset="1" stop-color="#34D399"/>
    </linearGradient>
  </defs>
  <rect width="64" height="64" rx="16" fill="url(#bg)"/>
  <path d="M20 40c-4.2-1.9-6.5-5.5-6.5-10 0-5.8 4.3-10.5 10-10.9C25.3 14.8 29.4 12 34 12c5.2 0 9.5 3.5 10.7 8.2 4.7 1.2 8 5.4 8 10.4 0 5.7-4.3 10.3-9.8 10.9-1.8 5.4-6.8 9.1-12.6 9.1-5.1 0-9.6-2.9-11.8-7.1" fill="none" stroke="url(#pulse)" stroke-width="4.2" stroke-linecap="round" stroke-linejoin="round"/>
  <path d="M24 28h9.5c3.6 0 6.5 2.9 6.5 6.5S37.1 41 33.5 41H24V23h8.5c3.1 0 5.5 2.4 5.5 5.3 0 1.6-.7 3.1-1.9 4" fill="none" stroke="#F8FAFC" stroke-width="4.2" stroke-linecap="round" stroke-linejoin="round"/>
  <circle cx="20" cy="40" r="3" fill="#22D3EE"/>
  <circle cx="45" cy="21" r="3" fill="#34D399"/>
  <circle cx="14" cy="30" r="2.5" fill="#A78BFA"/>
</svg>
